<?xml version="1.0" encoding="utf-8"?>
<!DOCTYPE svg PUBLIC "-//W3C//DTD SVG 1.1//EN" "http://www.w3.org/Graphics/SVG/1.1/DTD/svg11.dtd">

<svg width="512" height="512" version="1.1" xmlns="http://www.w3.org/2000/svg" xmlns:xlink="http://www.w3.org/1999/xlink" x="0px" y="0px" xml:space="preserve">
  <g>
 <path d="M94 305.664V206H109.333V305.664H94Z" fill="black"/>
<path d="M129.12 305.664V206H149.331L178.046 284.337H178.325L207.179 206H227.39V305.664H212.336V228.302H212.057L184.597 305.664H171.913L144.453 228.302H144.174V305.664H129.12Z" fill="black"/>
<path d="M237.8 305.664L274.878 206H291.465L328.822 305.664H312.095L303.871 281.689H262.193L253.969 305.664H237.8ZM266.793 268.726H299.55L283.241 220.218H282.962L266.793 268.726Z" fill="black"/>
<path d="M339.158 305.664V206H356.722L402.999 282.665H403.278V206H418.75V305.664H401.187L354.77 228.999H354.491V305.664H339.158Z" fill="black"/>
  </g>
</svg>