<svg width="230.2" height="71" viewBox="0 0 230.2 71" xmlns="http://www.w3.org/2000/svg"><g id="svgGroup" stroke-linecap="round" fill-rule="evenodd" font-size="9pt" stroke="#000" stroke-width="0.25mm" fill="#000" style="stroke:#000;stroke-width:0.25mm;fill:#000"><path d="M 36.5 70 L 27.5 70 L 27.5 0 L 40.8 0 L 60.2 44.3 L 79.3 0 L 92.9 0 L 92.9 70 L 83.4 70 L 83.4 12.1 L 64.7 54.2 L 55.3 54.2 L 36.5 12.1 L 36.5 70 Z M 186.7 70 L 177.7 70 L 177.7 0 L 190.3 0 L 221.2 58.2 L 221.2 0 L 230.2 0 L 230.2 70 L 217.8 70 L 186.7 12.2 L 186.7 70 Z M 167.7 67.5 L 159 71 L 151.2 51 L 118.8 51 L 111 70.8 L 102.9 67.5 L 130.3 0 L 140.7 0 L 167.7 67.5 Z M 9.5 70 L 0 70 L 0 0 L 9.5 0 L 9.5 70 Z M 135 9.4 L 121.8 43 L 148.1 43 L 135 9.4 Z" vector-effect="non-scaling-stroke"/></g></svg>