<svg width="512" height="512" viewBox="0 0 512 512" fill="none" xmlns="http://www.w3.org/2000/svg">
<path d="M0 284.299V133H23.2768V284.299H0Z" fill="black"/>
<path d="M53.3151 284.299V133H83.9981L127.589 251.923H128.012L171.815 133H202.498V284.299H179.645V166.857H179.221L137.535 284.299H118.278L76.5919 166.857H76.1686V284.299H53.3151Z" fill="black"/>
<path d="M218.301 284.299L274.588 133H299.77L356.48 284.299H331.087L318.603 247.903H255.332L242.847 284.299H218.301ZM262.315 228.223H312.043L287.285 154.584H286.862L262.315 228.223Z" fill="black"/>
<path d="M372.172 284.299V133H398.835L469.088 249.384H469.512V133H493V284.299H466.337L395.872 167.915H395.449V284.299H372.172Z" fill="black"/>
</svg>
